<?xml version="1.0" standalone="no"?>
<!DOCTYPE svg PUBLIC "-//W3C//DTD SVG 20010904//EN"
 "http://www.w3.org/TR/2001/REC-SVG-20010904/DTD/svg10.dtd">
<svg version="1.0" xmlns="http://www.w3.org/2000/svg"
 width="269.000000pt" height="269.000000pt" viewBox="0 0 269.000000 269.000000"
 preserveAspectRatio="xMidYMid meet">
<metadata>
Created by potrace 1.11, written by Peter Selinger 2001-2013
</metadata>
<g transform="translate(0.000000,269.000000) scale(0.100000,-0.100000)"
fill="#000000" stroke="none">
<path d="M885 2239 c-67 -19 -131 -109 -138 -193 -4 -50 -13 -54 -22 -9 -24
132 -127 203 -292 203 l-74 0 7 -277 c3 -153 10 -279 15 -281 33 -13 -16 -17
-185 -14 l-194 2 4 -72 c4 -76 12 -153 19 -178 2 -8 6 -26 9 -40 5 -32 36
-140 46 -160 4 -8 22 -46 40 -85 132 -287 401 -512 738 -619 45 -14 92 -27
104 -30 13 -2 44 -9 70 -15 106 -24 371 -34 502 -17 243 30 493 126 676 259
82 60 219 202 272 282 58 88 121 213 113 225 -4 6 -2 10 3 10 10 0 11 1 40
105 28 99 43 196 46 295 l1 35 -1103 1 c-606 1 -1106 4 -1109 8 -3 3 0 6 8 7
53 3 141 38 176 71 32 30 61 89 68 140 4 23 8 44 10 46 1 1 5 -21 9 -49 17
-128 82 -200 186 -204 104 -5 190 113 192 265 0 57 -12 122 -34 172 -22 51
-86 117 -116 119 -9 1 -26 2 -37 4 -11 1 -33 -2 -50 -6z m70 -139 c14 -5 31
-22 37 -37 12 -31 18 -173 6 -173 -3 0 -10 -9 -13 -20 -8 -26 -36 -40 -64 -33
-65 17 -79 195 -20 254 22 22 20 22 54 9z m-416 -15 c82 -42 83 -198 1 -240
-30 -15 -30 -15 -31 12 0 16 -2 51 -5 78 -14 179 -15 176 35 150z"/>
<path d="M1430 2240 l-35 -5 2 -75 c5 -154 5 -181 0 -186 -3 -3 -15 25 -27 63
-13 37 -27 74 -33 81 -5 6 -7 12 -4 12 3 0 -3 24 -13 53 -17 49 -20 52 -57 55
-21 2 -58 1 -82 -3 l-43 -7 6 -141 c4 -78 9 -182 13 -232 3 -49 7 -106 8 -125
1 -19 3 -38 4 -43 0 -4 28 -6 62 -6 l61 2 -6 113 c-3 63 -2 114 2 114 4 0 27
-52 51 -115 l43 -115 32 5 c17 2 52 6 77 10 l47 6 -4 72 c-3 69 -13 367 -14
433 0 27 -4 32 -27 35 -16 3 -44 2 -63 -1z"/>
<path d="M1946 2241 c-1 -3 -2 -21 -1 -38 1 -18 -2 -33 -6 -33 -5 0 -9 13 -9
29 0 35 -4 37 -74 33 l-55 -4 2 -162 c3 -186 0 -206 -33 -223 -45 -22 -75 16
-73 92 1 17 4 92 8 168 l6 137 -70 0 -71 0 -1 -62 c0 -35 -2 -72 -5 -83 -2
-11 -6 -78 -8 -149 -6 -137 4 -175 51 -218 51 -47 192 -58 256 -21 62 36 72
70 75 245 1 87 4 158 7 158 3 0 37 0 76 0 l70 0 -4 -214 -4 -214 56 2 c69 3
83 10 80 44 -1 15 -1 107 -1 205 l2 177 65 0 66 0 -3 67 -3 67 -198 1 c-109 1
-199 -1 -201 -4z"/>
</g>
</svg>
