<?xml version="1.0" encoding="UTF-8" standalone="no"?>
<svg
   xmlns:dc="http://purl.org/dc/elements/1.1/"
   xmlns:cc="http://creativecommons.org/ns#"
   xmlns:rdf="http://www.w3.org/1999/02/22-rdf-syntax-ns#"
   xmlns:svg="http://www.w3.org/2000/svg"
   xmlns="http://www.w3.org/2000/svg"
   id="svg8"
   version="1.1"
   viewBox="0 0 3201.1937 282.83958"
   height="1069"
   width="12099">
  <defs
     id="defs2">
    <pattern
       id="EMFhbasepattern"
       patternUnits="userSpaceOnUse"
       width="6"
       height="6"
       x="0"
       y="0" />
  </defs>
  <metadata
     id="metadata5">
    <rdf:RDF>
      <cc:Work
         rdf:about="">
        <dc:format>image/svg+xml</dc:format>
        <dc:type
           rdf:resource="http://purl.org/dc/dcmitype/StillImage" />
        <dc:title></dc:title>
      </cc:Work>
    </rdf:RDF>
  </metadata>
  <g
     transform="translate(0,-14.160406)"
     id="layer1">
    <g
       transform="translate(16.720366,830.29876)"
       id="g4394">
      <g
         transform="matrix(3.8424771,0,0,3.8424771,189.85827,4163.4605)"
         id="g4410">
        <path
           id="rect4362"
           d="m -203.24414,-20.509766 c 38.23641,63.194376 172.104792,249.245036 340.38672,83.367188 38.32844,-37.780957 68.55226,-64.6171963 92.41015,-83.367188 z m 522.73633,0 C 331.97677,48.759439 395.70406,350.47637 522.85742,111.42773 555.20693,50.610672 589.02117,8.4023204 621.97852,-20.509766 Z m 528.55664,0 C 874.9692,65.970659 958.3475,247.22665 1168.5723,154.28516 1414.2116,45.686756 1762.8,110.24312 1795.0605,-20.509766 Z m 1043.60157,0 C 2003.3152,101.58759 2176.1431,297.27301 2240,157.14258 c 38.5078,-84.503425 90.231,-140.5693 139.877,-177.652346 z m 679.7031,0 c 64.7015,135.637186 218.1394,402.146026 351.5039,211.937496 7.7609,-11.06884 15.3382,-21.45594 22.7481,-31.25781 V -20.509766 Z"
           style="opacity:1;fill:#f2b1f1;fill-opacity:1;fill-rule:nonzero;stroke:none;stroke-width:24.59135628;stroke-linecap:square;stroke-linejoin:miter;stroke-miterlimit:4;stroke-dasharray:none;stroke-dashoffset:0;stroke-opacity:1;paint-order:stroke fill markers"
           transform="matrix(0.26458333,0,0,0.26458333,0,-1290.5)" />
        <g
           id="g4401">
          <path
             style="fill:#ffffff;fill-opacity:0.15547707;stroke:none;stroke-width:0.26458332px;stroke-linecap:butt;stroke-linejoin:miter;stroke-opacity:1"
             d="m -44.242207,-1285.7619 c 0,0 31.749999,30.994 44.60118887,27.5922 12.85119113,-3.4018 38.17559513,-21.9226 38.17559513,-21.9226 z"
             id="path4370" />
          <path
             style="fill:#ffffff;fill-opacity:0.15547707;stroke:none;stroke-width:0.26458332px;stroke-linecap:butt;stroke-linejoin:miter;stroke-opacity:1"
             d="m 101.67559,-1259.506 c 0,0 13.22917,34.3959 25.32441,4.1578 0,0 6.04762,-16.631 5.29167,-21.9226 -0.75596,-5.2917 -18.14286,-7.1816 -22.3006,0.7559 -4.15774,7.9375 -7.55953,2.2678 -8.31548,17.0089 z"
             id="path4376" />
          <path
             style="fill:#ffffff;fill-opacity:0.15547707;stroke:none;stroke-width:0.26458332px;stroke-linecap:butt;stroke-linejoin:miter;stroke-opacity:1"
             d="m 245.35342,-1263.5868 c 0,0 27.2615,26.4597 56.12661,10.6908 28.86509,-15.7689 61.20471,-17.3725 61.20471,-17.3725 0,0 82.31902,-6.4145 89.80258,-13.0962 7.48352,-6.6818 -3.20726,-6.1472 -3.20726,-6.1472 0,0 -78.57722,13.6307 -161.43078,9.889 0,0 -68.42101,-17.9072 -42.49586,16.0361 z"
             id="path4378" />
          <path
             style="fill:#f4bdf3;fill-opacity:1;stroke:none;stroke-width:0.26458332px;stroke-linecap:butt;stroke-linejoin:miter;stroke-opacity:1"
             d="m 518.96131,-1282.5625 c 0,0 56.69642,73.3274 83.53274,9.8274 0,0 -28.72619,15.497 -83.53274,-9.8274 z"
             id="path4380" />
          <path
             style="fill:#f4bdf3;fill-opacity:1;stroke:none;stroke-width:0.99999994px;stroke-linecap:butt;stroke-linejoin:miter;stroke-opacity:1"
             d="m 2724.1445,24.628906 c -42.6993,0.213026 -68.8319,17.522043 -53.3007,67.998047 0,0 106.5774,248.680207 274.7617,53.166017 V 85.769531 C 2892.3311,63.525662 2789.1054,24.304819 2724.1445,24.628906 Z"
             transform="matrix(0.26458333,0,0,0.26458333,0,-1290.5)"
             id="path4382" />
        </g>
      </g>
    </g>
    <text
       id="text4414"
       y="-1180.1049"
       x="279.58328"
       style="font-style:normal;font-variant:normal;font-weight:normal;font-stretch:normal;font-size:35.27777863px;line-height:1.25;font-family:Andalus;-inkscape-font-specification:Andalus;letter-spacing:0px;word-spacing:0px;fill:#ffffff;fill-opacity:1;stroke:none;stroke-width:0.26458332"
       xml:space="preserve"><tspan
         style="font-style:normal;font-variant:normal;font-weight:normal;font-stretch:normal;font-size:35.27777863px;font-family:Andalus;-inkscape-font-specification:Andalus;fill:#ffffff;fill-opacity:1;stroke-width:0.26458332"
         y="-1150.1565"
         x="279.58328"
         id="tspan4412" /></text>
    <text
       id="text4418"
       y="-1170.4083"
       x="323.21768"
       style="font-style:normal;font-variant:normal;font-weight:normal;font-stretch:normal;font-size:17.63888741px;line-height:1.25;font-family:'Hemi Head';-inkscape-font-specification:'Hemi Head';letter-spacing:0px;word-spacing:0px;fill:#ffffff;fill-opacity:1;stroke:none;stroke-width:0.26458332"
       xml:space="preserve"><tspan
         style="fill:#ffffff;stroke-width:0.26458332"
         y="-1155.0801"
         x="323.21768"
         id="tspan4416" /></text>
    <flowRoot
       transform="matrix(0.26458333,0,0,0.26458333,0,-1290.5)"
       style="font-style:normal;font-variant:normal;font-weight:normal;font-stretch:normal;font-size:66.66666412px;line-height:1.25;font-family:BatangChe;-inkscape-font-specification:BatangChe;letter-spacing:0px;word-spacing:0px;fill:#000000;fill-opacity:1;stroke:none"
       id="flowRoot4534"
       xml:space="preserve"><flowRegion
         style="font-style:normal;font-variant:normal;font-weight:normal;font-stretch:normal;font-family:BatangChe;-inkscape-font-specification:BatangChe"
         id="flowRegion4536"><rect
           style="font-style:normal;font-variant:normal;font-weight:normal;font-stretch:normal;font-family:BatangChe;-inkscape-font-specification:BatangChe"
           y="4142.811"
           x="1010.6563"
           height="99.338013"
           width="686.72803"
           id="rect4538" /></flowRegion><flowPara
         style="font-style:normal;font-variant:normal;font-weight:normal;font-stretch:normal;font-family:BatangChe;-inkscape-font-specification:BatangChe"
         id="flowPara4540" /></flowRoot>    <flowRoot
       transform="matrix(0.26458333,0,0,0.26458333,0,-1290.5)"
       style="font-style:normal;font-variant:normal;font-weight:normal;font-stretch:normal;font-size:66.66666412px;line-height:1.25;font-family:Calibri;-inkscape-font-specification:Calibri;letter-spacing:0px;word-spacing:0px;fill:#000000;fill-opacity:1;stroke:none"
       id="flowRoot4546"
       xml:space="preserve"><flowRegion
         id="flowRegion4548"><rect
           y="5285.3579"
           x="586.37286"
           height="885.66736"
           width="1435.392"
           id="rect4550" /></flowRegion><flowPara
         id="flowPara4552" /></flowRoot>    <flowRoot
       transform="matrix(0.26458333,0,0,0.26458333,0,-1290.5)"
       style="font-style:normal;font-variant:normal;font-weight:normal;font-stretch:normal;font-size:66.66666412px;line-height:1.25;font-family:Calibri;-inkscape-font-specification:Calibri;letter-spacing:0px;word-spacing:0px;fill:#000000;fill-opacity:1;stroke:none"
       id="flowRoot4592"
       xml:space="preserve"><flowRegion
         id="flowRegion4594"><rect
           y="3257.4851"
           x="1362.0953"
           height="836.80298"
           width="280.97034"
           id="rect4596" /></flowRegion><flowPara
         id="flowPara4598" /></flowRoot>  </g>
</svg>
